<svg id="apple-app-store_cn" xmlns="http://www.w3.org/2000/svg" width="119.742" height="44.002" viewBox="0 0 119.742 44.002">
  <g id="Group_48" data-name="Group 48">
    <path id="Path_116" data-name="Path 116" d="M109.26,0H10.489c-.4,0-.8,0-1.2,0-.337,0-.671.009-1.011.014a14.537,14.537,0,0,0-2.2.194A7.332,7.332,0,0,0,3.978.9,7.082,7.082,0,0,0,2.2,2.2,6.885,6.885,0,0,0,.9,3.98,7.262,7.262,0,0,0,.214,6.074a14.293,14.293,0,0,0-.2,2.2C.006,8.613.005,8.952,0,9.289V34.716c.005.342.006.672.017,1.014a14.292,14.292,0,0,0,.2,2.2A7.247,7.247,0,0,0,.9,40.027,6.829,6.829,0,0,0,2.2,41.8a6.9,6.9,0,0,0,1.781,1.3,7.371,7.371,0,0,0,2.091.694,14.8,14.8,0,0,0,2.2.194c.34.007.674.012,1.011.012.4,0,.8,0,1.2,0H109.26c.4,0,.8,0,1.192,0,.335,0,.679,0,1.014-.012a14.607,14.607,0,0,0,2.2-.194,7.485,7.485,0,0,0,2.1-.694,6.905,6.905,0,0,0,1.779-1.3,7.035,7.035,0,0,0,1.3-1.776,7.265,7.265,0,0,0,.681-2.095,14.858,14.858,0,0,0,.2-2.2c0-.342,0-.673,0-1.014.009-.4.009-.8.009-1.2V10.49c0-.4,0-.8-.009-1.2,0-.337,0-.676,0-1.013a14.857,14.857,0,0,0-.2-2.2,7.28,7.28,0,0,0-.681-2.094A7.113,7.113,0,0,0,115.765.9a7.445,7.445,0,0,0-2.1-.69,14.349,14.349,0,0,0-2.2-.194C111.131.011,110.787,0,110.452,0,110.057,0,109.655,0,109.26,0Z" fill="#a6a6a6"/>
    <path id="Path_117" data-name="Path 117" d="M9.2,42.952c-.335,0-.662,0-.995-.012a13.957,13.957,0,0,1-2.056-.179,6.473,6.473,0,0,1-1.822-.6A5.947,5.947,0,0,1,2.792,41.04,5.853,5.853,0,0,1,1.67,39.5a6.294,6.294,0,0,1-.6-1.823,13.655,13.655,0,0,1-.183-2.063c-.007-.232-.016-1-.016-1V9.2s.01-.761.016-.984a13.608,13.608,0,0,1,.182-2.059,6.331,6.331,0,0,1,.6-1.828A5.911,5.911,0,0,1,2.786,2.792,6.122,6.122,0,0,1,4.328,1.667a6.406,6.406,0,0,1,1.819-.6A13.845,13.845,0,0,1,8.21.888L9.2.875H110.359l1,.014a13.624,13.624,0,0,1,2.044.179,6.533,6.533,0,0,1,1.838.6A6.153,6.153,0,0,1,117.9,4.333a6.339,6.339,0,0,1,.589,1.814,14.3,14.3,0,0,1,.191,2.076c0,.312,0,.646,0,.979.009.413.009.805.009,1.2V33.425c0,.4,0,.79-.009,1.183,0,.358,0,.685,0,1.023a14.008,14.008,0,0,1-.188,2.039,6.313,6.313,0,0,1-.594,1.837,6.029,6.029,0,0,1-1.117,1.524,5.954,5.954,0,0,1-1.539,1.125,6.448,6.448,0,0,1-1.835.6,13.8,13.8,0,0,1-2.056.179c-.322.007-.66.012-.987.012l-1.192,0Z" transform="translate(0.087 0.088)"/>
  </g>
  <g id="Group_49" data-name="Group 49" transform="translate(37.871 9.484)">
    <path id="Path_118" data-name="Path 118" d="M41.842,17.331H37.385l-1.07,3.16H34.427L38.648,8.8H40.61l4.222,11.693h-1.92Zm-4-1.458h3.533l-1.742-5.129h-.049Z" transform="translate(-34.427 -8.603)" fill="#fff"/>
    <path id="Path_119" data-name="Path 119" d="M52.9,15.949c0,2.649-1.418,4.351-3.558,4.351a2.89,2.89,0,0,1-2.682-1.491h-.04v4.222h-1.75V11.686h1.694V13.1H46.6A3.024,3.024,0,0,1,49.313,11.6C51.477,11.6,52.9,13.307,52.9,15.949Zm-1.8,0c0-1.726-.892-2.861-2.253-2.861-1.337,0-2.236,1.159-2.236,2.861,0,1.718.9,2.868,2.236,2.868C50.213,18.817,51.1,17.691,51.1,15.949Z" transform="translate(-33.382 -8.324)" fill="#fff"/>
    <path id="Path_120" data-name="Path 120" d="M61.433,15.949c0,2.649-1.418,4.351-3.558,4.351a2.89,2.89,0,0,1-2.682-1.491h-.04v4.222H53.4V11.686H55.1V13.1h.032A3.024,3.024,0,0,1,57.843,11.6C60.006,11.6,61.433,13.307,61.433,15.949Zm-1.8,0c0-1.726-.892-2.861-2.253-2.861-1.337,0-2.236,1.159-2.236,2.861,0,1.718.9,2.868,2.236,2.868,1.361,0,2.253-1.126,2.253-2.868Z" transform="translate(-32.528 -8.324)" fill="#fff"/>
    <path id="Path_121" data-name="Path 121" d="M66.5,17.251c.13,1.16,1.256,1.921,2.8,1.921,1.475,0,2.536-.761,2.536-1.807,0-.908-.64-1.451-2.155-1.823l-1.515-.365c-2.147-.519-3.144-1.523-3.144-3.152,0-2.017,1.758-3.4,4.254-3.4,2.472,0,4.165,1.386,4.222,3.4H71.729c-.106-1.167-1.07-1.871-2.48-1.871s-2.374.713-2.374,1.75c0,.827.616,1.313,2.123,1.685l1.288.316c2.4.567,3.395,1.531,3.395,3.241,0,2.188-1.742,3.558-4.513,3.558-2.593,0-4.344-1.338-4.457-3.453Z" transform="translate(-31.397 -8.621)" fill="#fff"/>
    <path id="Path_122" data-name="Path 122" d="M76.572,9.844v2.017h1.621v1.386H76.572v4.7c0,.73.325,1.07,1.037,1.07a5.467,5.467,0,0,0,.576-.04v1.377a4.805,4.805,0,0,1-.972.081c-1.726,0-2.4-.648-2.4-2.3V13.247h-1.24V11.861h1.24V9.844Z" transform="translate(-30.51 -8.499)" fill="#fff"/>
    <path id="Path_123" data-name="Path 123" d="M78.626,15.95c0-2.682,1.58-4.368,4.043-4.368s4.044,1.685,4.044,4.368-1.564,4.368-4.044,4.368S78.626,18.64,78.626,15.95Zm6.3,0c0-1.84-.843-2.926-2.261-2.926s-2.261,1.094-2.261,2.926c0,1.847.843,2.925,2.261,2.925S84.93,17.8,84.93,15.95Z" transform="translate(-30.005 -8.325)" fill="#fff"/>
    <path id="Path_124" data-name="Path 124" d="M87.289,11.686h1.669v1.451H89a2.033,2.033,0,0,1,2.05-1.54,2.7,2.7,0,0,1,.6.065V13.3a2.446,2.446,0,0,0-.786-.106,1.763,1.763,0,0,0-1.823,1.961v5.056h-1.75Z" transform="translate(-29.138 -8.324)" fill="#fff"/>
    <path id="Path_125" data-name="Path 125" d="M99.286,17.709a3.421,3.421,0,0,1-3.671,2.61c-2.48,0-4.019-1.662-4.019-4.327s1.548-4.408,3.946-4.408c2.359,0,3.842,1.62,3.842,4.2v.6H93.362v.106a2.22,2.22,0,0,0,2.293,2.415,1.929,1.929,0,0,0,1.969-1.2ZM93.37,15.164h4.262A2.05,2.05,0,0,0,95.541,13a2.158,2.158,0,0,0-2.171,2.164Z" transform="translate(-28.707 -8.325)" fill="#fff"/>
  </g>
  <g id="Group_50" data-name="Group 50" transform="translate(37.873 26.001)">
    <path id="Path_126" data-name="Path 126" d="M34.429,24.04h8.208V24.9h-3.9v1.214q.839.388,1.688.856t1.718,1l-.505.789q-.894-.57-1.607-1.006t-1.294-.723V32.1h-.87V24.9H34.429Z" transform="translate(-34.429 -23.595)" fill="#fff"/>
    <path id="Path_127" data-name="Path 127" d="M44,24.338h1.718v-.693h.849v.693h1.592v.789H46.567V25.8h2.007q-.02-.495-.04-1.033t-.02-1.129h.844q0,.6.018,1.134t.038,1.028h2.234v.8H49.453q.04.556.1,1.015c.042.307.08.581.114.824a1.823,1.823,0,0,1,.061.246c.013.078.027.159.04.24a8.883,8.883,0,0,0,.374-.945q.167-.5.3-1.071l.773.353A10.712,10.712,0,0,1,50.116,30.1c.027.067.056.135.089.2s.064.135.1.2q.318.632.505.632.127,0,.293-1.329l.743.394q-.318,1.845-.94,1.845-.471,0-1.067-.829a2.347,2.347,0,0,1-.207-.394,5.632,5.632,0,0,1-1.542,1.325l-.48-.692a4.611,4.611,0,0,0,1.637-1.543q-.091-.3-.184-.613t-.16-.66a13.867,13.867,0,0,1-.288-2.037H43.52v-.8h2.2v-.671H44Zm4.16,5.817v.758q-.334.04-.675.075c-.227.024-.458.049-.69.076v1.046h-.849v-.94q-.48.04-.976.075c-.33.024-.666.055-1.006.091l-.111-.819q.561-.021,1.076-.058t1.016-.069v-.682H44.258l-.177-.693a5.734,5.734,0,0,0,.612-.975H43.8v-.773H45.03a1.906,1.906,0,0,0,.106-.3q.04-.148.1-.316l.829.147c-.033.094-.06.177-.081.25a1.092,1.092,0,0,1-.086.214h2.3v.773H45.592q-.136.274-.276.506t-.261.45h.89v-.612h.849V29h1.314v.712H46.8V30.3c.232-.019.462-.043.69-.068l.675-.078ZM49.64,24.15l.642-.434a13.812,13.812,0,0,1,1.077,1.36l-.652.464q-.2-.313-.462-.664t-.6-.726Z" transform="translate(-33.519 -23.636)" fill="#fff"/>
  </g>
  <g id="_Group_" data-name="&lt;Group&gt;" transform="translate(10.969 9.593)">
    <g id="_Group_2" data-name="&lt;Group&gt;">
      <path id="_Path_" data-name="&lt;Path&gt;" d="M26.249,20.934a5.444,5.444,0,0,1,2.592-4.567,5.572,5.572,0,0,0-4.39-2.374C22.6,13.8,20.813,15.1,19.872,15.1c-.96,0-2.409-1.086-3.97-1.054a5.847,5.847,0,0,0-4.92,3c-2.128,3.683-.541,9.1,1.5,12.074,1.02,1.458,2.211,3.087,3.771,3.029,1.526-.063,2.1-.973,3.938-.973,1.825,0,2.359.973,3.95.936,1.637-.027,2.669-1.464,3.653-2.936a12.059,12.059,0,0,0,1.67-3.4,5.261,5.261,0,0,1-3.211-4.839Z" transform="translate(-9.972 -8.195)" fill="#fff"/>
      <path id="_Path_2" data-name="&lt;Path&gt;" d="M22.362,12.56a5.36,5.36,0,0,0,1.226-3.84,5.453,5.453,0,0,0-3.528,1.826,5.1,5.1,0,0,0-1.258,3.7,4.509,4.509,0,0,0,3.561-1.683Z" transform="translate(-9.089 -8.72)" fill="#fff"/>
    </g>
  </g>
</svg>
