<svg xmlns="http://www.w3.org/2000/svg" width="199.997" height="58.133" viewBox="0 0 199.997 58.133">
  <g id="logo-dark-bg" transform="translate(-31.658 -64.234)">
    <g id="Group_146" data-name="Group 146" transform="translate(170.251 64.234)">
      <path id="Path_534" data-name="Path 534" d="M1554.429,71.6a1.2,1.2,0,0,1-.266.605,1.052,1.052,0,0,0,.58-.246c-.006.21-.159.305-.259.446.186-.061.369-.127.557-.183.255-.075.513-.144.771-.213a.726.726,0,0,1,.151-.018.6.6,0,0,1,.7.458c.1.294.156.6.229.9.051.21.1.421.144.632a1.054,1.054,0,0,0,.264.479.345.345,0,0,0,.51.086.443.443,0,0,1-.379.264,1.433,1.433,0,0,1-.322-.018c-.17-.028-.17-.034-.251.151l.175.053a.676.676,0,0,1,.377,1.079.617.617,0,0,0-.092.2.667.667,0,0,1-.262.435c.026.053.052.1.076.154a.845.845,0,0,1,.073.175c.039.2.027.4.085.6a.193.193,0,0,1-.029.146.7.7,0,0,0-.09.432,1.969,1.969,0,0,1-.181.717c-.028.069-.057.138-.094.227.3.1.594.214.891.3.866.253,1.734.5,2.6.745a.728.728,0,0,0,.431,0c.212-.067.426-.128.637-.2a.416.416,0,0,0,.144-.086,4.979,4.979,0,0,1,.945-.673c.183-.1.249-.089.367.079a.261.261,0,0,0,.243.143.265.265,0,0,1,.287.193.145.145,0,0,0,.045.005c.24-.07.305-.044.39.189a3.551,3.551,0,0,1,.095.407,1.821,1.821,0,0,1,.955.547.618.618,0,0,1-.479-.009c-.109-.05-.217-.106-.323-.163a.152.152,0,0,0-.193,0c-.018.016-.048.037-.064.031-.161-.056-.26.059-.38.126a1.046,1.046,0,0,1-.261.108,3.916,3.916,0,0,0-.863.3,1.4,1.4,0,0,1-.9.149.924.924,0,0,0-.171-.013,5.96,5.96,0,0,1-1.266-.121c-.9-.181-1.812-.332-2.718-.5-.542-.1-1.084-.209-1.634-.316-.08.086-.157.183-.3.133-.025-.009-.069.041-.118.071l.111.126a1.718,1.718,0,0,1-.911,1,1.1,1.1,0,0,1-.446.068.357.357,0,0,1-.2-.124,3.828,3.828,0,0,1-.681-.937.666.666,0,0,0-.075-.13c-.08-.094-.083-.092-.087-.211a.425.425,0,0,0-.307-.121.281.281,0,0,1-.182-.075,4.959,4.959,0,0,1-.447-.542,10.49,10.49,0,0,1-.854-1.637c-.051-.116-.108-.23-.153-.349a.411.411,0,0,0-.195-.243.317.317,0,0,1-.112-.167.2.2,0,0,0-.177-.147c-.132-.015-.264-.041-.4-.047a.175.175,0,0,0-.119.073q-.641.841-1.277,1.687c-.157.208-.307.421-.466.628a.4.4,0,0,0-.09.3c.012.126.005.254.006.381,0,.209,0,.418,0,.654l-.415.127v1c.056-.058.086-.085.11-.115.068-.084.138-.167.2-.256a1.994,1.994,0,0,1,.8-.657c.415-.206.839-.395,1.258-.594a.835.835,0,0,1,.478-.081c.485.06.972.1,1.458.159a1.5,1.5,0,0,1,.278.066c.292.092.333.157.285.455-.034.213-.065.428-.109.639-.081.385-.176.768-.255,1.153-.032.155-.036.315-.052.473-.02.183-.04.365-.061.56.077.031.152.06.227.092a10.759,10.759,0,0,1,1.9,1,4.518,4.518,0,0,1,.489.395.332.332,0,0,0,.271.095c.546-.032,1.092-.059,1.638-.085a30.611,30.611,0,0,1,3.3.051c1.206.072,2.4.214,3.6.395a26.4,26.4,0,0,1,2.971.588c.38.1.753.23,1.127.353.325.107.649.22.969.342.077.029.2.02.2.173,0,.06.218.1.359.079l-.031-.159-.24-.069c.037-.117.124-.125.2-.148a3.523,3.523,0,0,1,1.094-.129,24.407,24.407,0,0,1,3.077.241,11.347,11.347,0,0,1,2.924.831c.12.053.243.1.368.151,0-.021,0-.029,0-.031-.216-.211-.2-.376.045-.553a1.137,1.137,0,0,1,1.242-.039.433.433,0,0,1,.251.371l.167-.061c-.048-.17-.1-.318-.129-.47a.53.53,0,0,1,.008-.208.25.25,0,0,1,.25-.219.9.9,0,0,1,.529.128,1.659,1.659,0,0,1,.654.633l.3-.348c.069.023.144.055.223.074q.536.133,1.074.259a.883.883,0,0,0,.151,0,.4.4,0,0,1,.149.017c.169.085.334.177.5.27.019.011.029.038.035.047-.119.217-.345.226-.53.277a3.977,3.977,0,0,0-.94.453c-.186.108-.378.2-.573.3a1.169,1.169,0,0,1-.236.055,1.244,1.244,0,0,1-.877.59,1.211,1.211,0,0,1-.432,0,.288.288,0,0,1-.261-.284c-.006-.075-.019-.15-.033-.254a.963.963,0,0,1-.884.356c-.323-.051-.658-.1-.806-.489l-.482.273a4.379,4.379,0,0,1-.518.262l.1-.186a.858.858,0,0,0-.633.38c.168.083.289-.09.459-.085a1.032,1.032,0,0,1-.028.149,1.686,1.686,0,0,1-.562.777,3.885,3.885,0,0,1-.906.523,22.289,22.289,0,0,1-4.684,1.461,10.958,10.958,0,0,1-2.6.111c-.3-.018-.607-.059-.91-.1a2.113,2.113,0,0,1-.275-.075l.281-.149a.87.87,0,0,0-.523-.15c-.032.15-.15.19-.274.222s-.256.076-.388.1a.489.489,0,0,0-.347.241q-.138.217-.284.429c-.043.062-.086.124-.181.117s-.117.062-.133.135c-.027.123-.053.247-.082.386a1.3,1.3,0,0,1,.183,1.18,3.524,3.524,0,0,1-.355.963,10.64,10.64,0,0,1-1.212,1.823,1.057,1.057,0,0,0-.192.346,14.693,14.693,0,0,1-1.3,2.794q-1.051,1.826-2.082,3.663a9.7,9.7,0,0,0-.615,1.331,1.324,1.324,0,0,0,.106,1.223,4.9,4.9,0,0,0,.321.472,1.567,1.567,0,0,0,.8.555,12.268,12.268,0,0,0,1.881.481q.993.134,1.968.358a18.81,18.81,0,0,1,4.277,1.415,10.052,10.052,0,0,1,3.376,2.655,5.726,5.726,0,0,1,.9,1.455.858.858,0,0,1,.086.493c-.059.33-.07.669-.121,1a3.858,3.858,0,0,1-.308,1.058.509.509,0,0,1-.041.057c-.016-.029-.036-.049-.035-.068a2.218,2.218,0,0,0-.289-1.093,9.186,9.186,0,0,0-2.25-2.81,16.6,16.6,0,0,0-3.082-2.032,21.751,21.751,0,0,0-2.579-1.139,22.556,22.556,0,0,1-2.712-1.258,10.1,10.1,0,0,0-1.506-.688,8.41,8.41,0,0,1-1.6-.763,3.846,3.846,0,0,1-.364-.244,1.31,1.31,0,0,1-.509-1.418,3.283,3.283,0,0,1,.46-1.082c.147-.23.3-.456.47-.671.769-.988,1.553-1.965,2.313-2.961.73-.956,1.5-1.878,2.286-2.786a1.28,1.28,0,0,0,.276-.513,8.965,8.965,0,0,0,.3-1.4,1.909,1.909,0,0,0-.128-1.1c-.011-.022-.025-.043-.044-.077-.046.026-.09.047-.13.074a16.05,16.05,0,0,1-1.844,1.035,1.155,1.155,0,0,1-.176.072c-.137.042-.17.031-.243-.095a.19.19,0,0,0-.188-.1l-.251.013a.405.405,0,0,1,.03.57,2.746,2.746,0,0,1-.355.47,4.329,4.329,0,0,1-1.887,1.143,1,1,0,0,1-.715,0l-.03-.174-.192.053c.128.154.139.211.041.364a2.6,2.6,0,0,1-.268.347,7.067,7.067,0,0,1-1.936,1.5,3.853,3.853,0,0,1-.6.239,1.025,1.025,0,0,1-.32.026.241.241,0,0,1-.22-.132l.168-.178-.023-.034a.986.986,0,0,0-.464.264c.084.022.137.033.189.05.127.04.158.118.088.232a.588.588,0,0,1-.111.13,3.871,3.871,0,0,1-2.594,1.041,1.969,1.969,0,0,1-.814-.177c-.023-.01-.047-.015-.1-.033.006.075.007.135.016.192.108.671.213,1.343.332,2.012a1.028,1.028,0,0,0,.167.4c.392.556.8,1.1,1.2,1.652.083.113.17.222.261.329a3.428,3.428,0,0,1,.746,1.628c.161.855.316,1.712.432,2.574.081.6.095,1.216.136,1.825.061.9.131,1.8.175,2.7.036.746.2,1.472.3,2.209q.107.794.215,1.587a.958.958,0,0,0,.044.224,1.469,1.469,0,0,1,.064.7,9.558,9.558,0,0,1-.147,1.4,3.671,3.671,0,0,1-.311.918,1.243,1.243,0,0,1-.193.256.148.148,0,0,1-.222.011,1.4,1.4,0,0,1-.255-.25,4.854,4.854,0,0,1-.317-.586c-.133-.288-.256-.582-.371-.878a1.209,1.209,0,0,1-.083-.369c-.021-.4-.019-.8-.042-1.2-.012-.214-.057-.426-.087-.639-.045-.314-.1-.628-.135-.943-.082-.713-.155-1.428-.233-2.141a.9.9,0,0,0-.039-.167,13.234,13.234,0,0,0-1.018-2.543c-.16-.289-.3-.588-.447-.885a16.682,16.682,0,0,0-1.69-2.693c-.418-.552-.812-1.122-1.226-1.678-.36-.484-.745-.95-1.095-1.442a8.957,8.957,0,0,0-.6-.707,2.384,2.384,0,0,1-.516-.989,2.124,2.124,0,0,0-.294-.635c-.114-.175-.214-.361-.311-.546-.257-.489-.508-.982-.763-1.472-.035-.067-.072-.133-.113-.208-.2.06-.418-.027-.627.071.043.1.087.2.124.3a4.357,4.357,0,0,1,.247,1.133q.081.911.115,1.826a5.371,5.371,0,0,1-.149,1.476.334.334,0,0,0,.019.2,2.912,2.912,0,0,1,.243.8.722.722,0,0,0,.1.245,7.665,7.665,0,0,1,.816,2.268c.022.115.024.234.038.375a.45.45,0,0,1,.634.055,1.054,1.054,0,0,1,.418,1.06.4.4,0,0,1-.221.327l.134.146c.045-.052.077-.089.108-.126a.84.84,0,0,1,.425-.277.268.268,0,0,1,.358.165,1.063,1.063,0,0,1,.056.673,1.551,1.551,0,0,1-.283.667l.426.12c.075.387.153.772.224,1.158q.067.365.116.734a.384.384,0,0,1-.062.327.352.352,0,0,1-.231-.154,4.972,4.972,0,0,0-.966-.888.317.317,0,0,1-.088-.072.881.881,0,0,0-.5-.395c-.058-.146-.2-.1-.305-.131a1.331,1.331,0,0,1-.881-.731.4.4,0,0,1,.212-.585l.134-.07a.983.983,0,0,1-.688-.571,1.249,1.249,0,0,1-.028-.918c-.07-.062-.143-.139-.228-.2-.736-.534-1.483-1.052-2.207-1.6-.547-.414-1.065-.866-1.6-1.3l-.175-.143c.011.1.015.16.025.219a1.335,1.335,0,0,1-.4,1.27,7.269,7.269,0,0,1-.55.528c-.422.326-.855.637-1.292.942-.453.317-.917.619-1.375.928-.421.285-.841.572-1.263.856a12.431,12.431,0,0,0-1.2,1,17.218,17.218,0,0,0-3.134,3.672,9.231,9.231,0,0,0-.961,1.861.611.611,0,0,1-.009-.265,12.587,12.587,0,0,1,.537-2.725c.086-.279.193-.554.252-.839a.893.893,0,0,1,.264-.444,17.386,17.386,0,0,1,3.574-2.9,30.088,30.088,0,0,1,4.383-2.261,1.858,1.858,0,0,1,.3-.114.276.276,0,0,0,.206-.2,2.226,2.226,0,0,0,.025-1.71c-.073-.189-.162-.373-.245-.558a.258.258,0,0,0-.046-.083q-.36-.351-.724-.7a.8.8,0,0,1-.07-.063c-.541-.656-1.092-1.306-1.62-1.973a8.677,8.677,0,0,1-1.451-2.58.348.348,0,0,0-.217-.247,12.294,12.294,0,0,1-2.2-1.09,6.284,6.284,0,0,0-1.029-.488,7.977,7.977,0,0,1-2.666-1.56,4.543,4.543,0,0,1-.8-.917,2.846,2.846,0,0,1-.42-1.036,1.083,1.083,0,0,1,.086-.686,5.269,5.269,0,0,1,1.3-1.653c.251-.224.527-.419.789-.632a2.324,2.324,0,0,0,.294-.267,9.477,9.477,0,0,1,1.435-1.308,18.418,18.418,0,0,1,4.182-2.337c1.345-.554,2.695-1.1,4.082-1.539.169-.054.331-.132.5-.191a.18.18,0,0,0,.134-.2,1.169,1.169,0,0,1,.32-.812c-.1-.189.057-.289.149-.418l-.075-.179-.1.065c-.649.423-1.3.843-1.947,1.271a.977.977,0,0,1-.69.152c-.069-.009-.138-.015-.211-.023-.069.136-.033.313-.184.417-.135-.129-.054-.325-.166-.488a1.118,1.118,0,0,0-.057.152c-.025.124-.043.251-.068.375-.031.149-.038.152-.207.143l-.147.269c-.158-.27-.114-.56-.265-.789l-.236.07c-.04.11-.07.214-.114.311a1.28,1.28,0,0,1-.146.243c-.02.027-.076.027-.116.039a.461.461,0,0,1-.032-.117c0-.17.015-.341,0-.51s-.044-.326.089-.467a.682.682,0,0,0,.081-.192c.049-.11.095-.222.152-.328.095-.178.1-.16.3-.143.278.024.558.024.838.03.159,0,.318-.012.476,0a.525.525,0,0,0,.384-.133c.578-.487,1.162-.968,1.735-1.462.211-.182.4-.389.594-.591a.508.508,0,0,0,.2-.392c0-.031.033-.064.056-.105a1.675,1.675,0,0,0-.109-.152c-.16-.18-.323-.358-.48-.53-.233.061-.389-.061-.348-.276a.311.311,0,0,0-.055-.227c-.093-.18-.18-.363-.266-.546a.454.454,0,0,1-.031-.129c-.028-.195-.025-.21.155-.3a6.056,6.056,0,0,1,2.078-.6c-.016-.074-.036-.151-.05-.228s-.025-.176-.042-.264a.426.426,0,0,1,.136-.423c.2-.192.385-.4.583-.616-.245-.179-.229-.44-.229-.7-.1.1-.182.182-.267.27a.111.111,0,0,0-.032.066.71.71,0,0,1-.3.543.474.474,0,0,0,.429.031,1.041,1.041,0,0,1-.619.312.793.793,0,0,1-.661-.262,1.527,1.527,0,0,0,.214.521,1.1,1.1,0,0,1-.153-.069,1.63,1.63,0,0,1-.673-1.069,1.488,1.488,0,0,0-.132-.411.789.789,0,0,1,.249-.941,1.066,1.066,0,0,0,.141-.124,2.086,2.086,0,0,0-.974.292.173.173,0,0,1,.056-.255,1,1,0,0,1,.3-.161,4.923,4.923,0,0,1,.6-.121c.214-.032.43-.045.643-.074a.394.394,0,0,0,.263-.13,1.161,1.161,0,0,1-.561-.454.336.336,0,0,1-.006-.484,2.433,2.433,0,0,1,.739-.679l.207-.124a.947.947,0,0,1,.229-.771,3.258,3.258,0,0,1,.824-.864,3.714,3.714,0,0,0,.568-.476,1.5,1.5,0,0,0,.446-1.137,1.447,1.447,0,0,0-.039-.177l-1.229.935a1.8,1.8,0,0,1,.221-.489c.076-.159.159-.315.25-.495a5,5,0,0,1-1.072.1c.032-.033.047-.057.069-.069a10.829,10.829,0,0,0,1.16-.833.174.174,0,0,0,.061-.2,3.622,3.622,0,0,1,.125-1.64,3.162,3.162,0,0,1,.883-1.468.518.518,0,0,1,.083-.052,1.077,1.077,0,0,1,0-1.013,2.456,2.456,0,0,1,.752-.969,4.66,4.66,0,0,1,2.126-.973,5.4,5.4,0,0,1,2.784.184,4.948,4.948,0,0,1,1.762,1.11,4.785,4.785,0,0,1,1.17,1.652,3.823,3.823,0,0,1,.269,1.529.389.389,0,0,0,.184.358,8.568,8.568,0,0,0,1.3.789,1.6,1.6,0,0,1,.25.146,6.422,6.422,0,0,1-1.26-.037v.72a2.861,2.861,0,0,1-.749-.572l-.476.671c.1.055.217.112.326.173a7.952,7.952,0,0,0,1.944.712c.212.054.214.04.326-.153A.938.938,0,0,0,1554,70.9a.774.774,0,0,1,.333.449c.029.083.065.164.1.246Zm-16.835,17.382-.027-.028c-.03.007-.06.013-.089.022-1.83.6-3.641,1.248-5.423,1.975a21.511,21.511,0,0,0-3.077,1.552.817.817,0,0,0-.222.176,5.386,5.386,0,0,0-1.145,2.38,2.165,2.165,0,0,0,.512,1.947,13.39,13.39,0,0,0,2.631,2.246,1.117,1.117,0,0,0,.277.123,14.9,14.9,0,0,0,2.3.515.968.968,0,0,0,.13,0c-.007-.051-.011-.082-.015-.113a6.63,6.63,0,0,1-.07-1.292,8.049,8.049,0,0,1,.344-1.909,23.381,23.381,0,0,1,3.752-7.428C1537.515,89.089,1537.554,89.033,1537.594,88.977Zm10.289-6.531c.125.128.23.228.327.337a.215.215,0,0,0,.183.075,7.369,7.369,0,0,1,1.994.278,2.355,2.355,0,0,0,.243.037l.6.086.143.024a8.121,8.121,0,0,1,.6-1.64l-.794-.574A15.8,15.8,0,0,0,1547.883,82.446Zm4.644,3.266c-.018-.081-.005-.137.087-.151.232-.034.463-.083.7-.109.366-.041.733-.067,1.1-.1.089-.008.178-.02.267-.03a.3.3,0,0,0-.149-.1c-.323-.093-.645-.188-.971-.271-.473-.12-.951-.222-1.423-.349-.138-.037-.243-.048-.328.079.035.192.131.389-.062.569l.536.3-.118.053A.4.4,0,0,0,1552.527,85.712Zm2.044-9.9c-.055.22-.022.28.2.334.123.029.246.058.371.079a.862.862,0,0,1,.679.381c.176-.048.173-.049.214-.185.027-.089.066-.176.1-.263a3.905,3.905,0,0,0,.161-.425.313.313,0,0,0-.371-.42,1.053,1.053,0,0,0-.259.059c-.237.089-.471.187-.705.281Zm-12.763,8.547c-.143.048-.265.1-.392.13a.336.336,0,0,0-.275.321.777.777,0,0,1-.28.621,1.366,1.366,0,0,1-.856.374.757.757,0,0,0-.1.015.687.687,0,0,0,.074.53c.122-.1.241-.206.362-.307s.254-.211.384-.313.25-.2.378-.289.273-.186.407-.282a2.667,2.667,0,0,0,.384-.248l-.016-.04h-.321ZM1553.449,72.1a2.8,2.8,0,0,0-1.757-.678,1.181,1.181,0,0,0,.1.126c.251.231.5.468.761.687a.412.412,0,0,0,.28.086A1.382,1.382,0,0,0,1553.449,72.1Zm-11.41,1.674-.012-.042-.694.184a.265.265,0,0,0-.2.251,1.022,1.022,0,0,0,.112.545l.485-.2a2.751,2.751,0,0,1-.23-.217c-.134-.161-.118-.231.067-.318C1541.725,73.9,1541.883,73.837,1542.039,73.769Zm7.475,10.388,1.055.411.235-.277A3.7,3.7,0,0,0,1549.514,84.157Zm-7.325-10.089-.028-.038-.389.083c0,.012,0,.023,0,.035l.294.143Z" transform="translate(-1526.405 -64.234)" fill="#fff" fill-rule="evenodd"/>
      <path id="Path_535" data-name="Path 535" d="M2188.645,124.332v0Z" transform="translate(-2127.242 -118.454)" fill="#fff" fill-rule="evenodd"/>
    </g>
    <g id="Group_148" data-name="Group 148" transform="translate(38.056 74.544)">
      <rect id="Rectangle_30" data-name="Rectangle 30" width="4.62" height="31.735" transform="translate(99.756 0.027)" fill="#fff"/>
      <path id="Path_536" data-name="Path 536" d="M1319.917,175.709l6.914,5.752v-5.752Z" transform="translate(-1206.868 -175.682)" fill="#fff"/>
      <path id="Path_537" data-name="Path 537" d="M1298.922,310.891v-3.674l-4.417,3.674,4.417,3.674Z" transform="translate(-1183.813 -294.996)" fill="#fff"/>
      <path id="Path_538" data-name="Path 538" d="M626.263,207.521a15.225,15.225,0,0,1-6.872-5.255q-3.234-4.043-3.234-10.612t3.234-10.612a15.225,15.225,0,0,1,6.872-5.256,19.1,19.1,0,0,0-3.74,6.519,33.919,33.919,0,0,0,0,18.7A19.1,19.1,0,0,0,626.263,207.521Z" transform="translate(-568.36 -175.752)" fill="#fff"/>
      <g id="Group_147" data-name="Group 147" transform="translate(25.362 0.033)">
        <path id="Path_539" data-name="Path 539" d="M374.2,207.571V175.836h4.62l.047,31.735Z" transform="translate(-374.201 -175.83)" fill="#fff"/>
        <path id="Path_540" data-name="Path 540" d="M532.627,343.484" transform="translate(-517.938 -327.934)" fill="#fff"/>
        <path id="Path_541" data-name="Path 541" d="M485.575,191.947l6.566,15.571h4.624l-6.828-16.191h0a15.392,15.392,0,0,0,3.156-1.838,6.681,6.681,0,0,0,0-10.814A13.531,13.531,0,0,0,487.236,176c-.413-.069-1.661-.22-1.661-.22a10.138,10.138,0,0,1,3.187,3.321,10.69,10.69,0,0,1,0,9.527,10.115,10.115,0,0,1-3.18,3.321Z" transform="translate(-475.248 -175.777)" fill="#fff"/>
      </g>
      <path id="Path_542" data-name="Path 542" d="M901.442,207.2h1.573l8.881-26.066,8.864,26.066h4.667l-10.8-31.78h-2.453Z" transform="translate(-827.194 -175.42)" fill="#fff"/>
      <path id="Path_543" data-name="Path 543" d="M1413.506,207.2h1.573l8.88-26.066,8.864,26.066h4.667l-10.8-31.78h-2.453Z" transform="translate(-1291.779 -175.42)" fill="#fff"/>
      <path id="Path_544" data-name="Path 544" d="M1319.917,461.886l6.914-5.752v5.752Z" transform="translate(-1206.868 -430.106)" fill="#fff"/>
      <path id="Path_545" data-name="Path 545" d="M810.383,461.886l6.914-5.752v5.752Z" transform="translate(-744.578 -430.106)" fill="#fff"/>
      <path id="Path_546" data-name="Path 546" d="M810.383,175.42l6.914,5.752V175.42Z" transform="translate(-744.578 -175.42)" fill="#fff"/>
      <path id="Path_547" data-name="Path 547" d="M100.666,207.2l10.8-31.78h2.38l10.8,31.78h-4.667l-8.87-26.088L102.243,207.2Z" transform="translate(-100.666 -175.42)" fill="#fff"/>
    </g>
    <g id="Group_152" data-name="Group 152" transform="translate(31.658 107.698)">
      <g id="Group_149" data-name="Group 149" transform="translate(5.327 1.6)">
        <line id="Line_12" data-name="Line 12" x2="148.774" transform="translate(0 0.325)"/>
        <rect id="Rectangle_31" data-name="Rectangle 31" width="148.774" height="0.649" fill="#fff"/>
      </g>
      <g id="Group_150" data-name="Group 150" transform="translate(0 0)">
        <rect id="Rectangle_32" data-name="Rectangle 32" width="2.721" height="2.721" transform="matrix(0.707, -0.707, 0.707, 0.707, 1.734, 1.924)" fill="#fff"/>
        <rect id="Rectangle_33" data-name="Rectangle 33" width="1.9" height="1.9" transform="translate(0 1.924) rotate(-44.997)" fill="#fff"/>
      </g>
      <g id="Group_151" data-name="Group 151" transform="translate(153.155 0)">
        <rect id="Rectangle_34" data-name="Rectangle 34" width="2.721" height="2.721" transform="translate(0 1.924) rotate(-44.999)" fill="#fff"/>
        <rect id="Rectangle_35" data-name="Rectangle 35" width="1.9" height="1.9" transform="matrix(0.707, -0.707, 0.707, 0.707, 2.896, 1.924)" fill="#fff"/>
      </g>
    </g>
    <g id="Group_155" data-name="Group 155" transform="translate(93.484 111.417)">
      <g id="Group_153" data-name="Group 153" transform="translate(0 0)">
        <path id="Path_548" data-name="Path 548" d="M699.567,574.888v3.744h-.229v-3.744h-.882v-.228h1.992v.228Z" transform="translate(-698.457 -574.515)" fill="#fff"/>
        <path id="Path_549" data-name="Path 549" d="M720.378,594.41l-.72-1.836-.731,1.836-1.032-2.4h.246l.776,1.78.742-1.853.737,1.847.77-1.775h.257Z" transform="translate(-716.093 -590.193)" fill="#fff"/>
        <path id="Path_550" data-name="Path 550" d="M759.289,594.331a1.189,1.189,0,0,1-2.037-.84,1.142,1.142,0,0,1,.346-.84,1.128,1.128,0,0,1,.843-.35,1.2,1.2,0,0,1,.848,2.031Zm-.162-1.524a.925.925,0,0,0-.686-.284.915.915,0,0,0-.675.289.957.957,0,1,0,1.362-.006Z" transform="translate(-751.801 -590.52)" fill="#fff"/>
        <path id="Path_551" data-name="Path 551" d="M803.98,596.1h-.257l.6-1.291-.971-2.086h.245l.859,1.814.848-1.814h.251Z" transform="translate(-793.624 -590.901)" fill="#fff"/>
        <path id="Path_552" data-name="Path 552" d="M830.24,594.331a1.189,1.189,0,0,1-2.037-.84,1.142,1.142,0,0,1,.346-.84,1.128,1.128,0,0,1,.843-.35,1.2,1.2,0,0,1,.848,2.031Zm-.162-1.524a.925.925,0,0,0-.686-.284.915.915,0,0,0-.675.289.957.957,0,1,0,1.361-.006Z" transform="translate(-816.173 -590.52)" fill="#fff"/>
        <path id="Path_553" data-name="Path 553" d="M861.834,594.817a.835.835,0,0,1-.642.245.82.82,0,0,1-.63-.239.941.941,0,0,1-.223-.668V592.72h.229v1.435a.782.782,0,0,0,.145.506.6.6,0,0,0,.48.178q.642,0,.642-.684V592.72h.223v1.435A.934.934,0,0,1,861.834,594.817Z" transform="translate(-845.329 -590.901)" fill="#fff"/>
        <path id="Path_554" data-name="Path 554" d="M888.61,594.745v-1.374q0-.729-.658-.729a.622.622,0,0,0-.491.189.737.737,0,0,0-.173.517v1.4h-.229v-2.3h.229v.278a.673.673,0,0,1,.664-.306.858.858,0,0,1,.658.245.963.963,0,0,1,.229.684v1.4Z" transform="translate(-869.572 -590.629)" fill="#fff"/>
        <path id="Path_555" data-name="Path 555" d="M914.961,595.459a1.111,1.111,0,0,1-.82.312q-.943,0-1.127-.74h.229a.579.579,0,0,0,.352.406,1.3,1.3,0,0,0,.547.106.888.888,0,0,0,.664-.239.9.9,0,0,0,.24-.668V594.3a1.185,1.185,0,1,1,0-1.5v-.4h.229v2.248A1.1,1.1,0,0,1,914.961,595.459Zm-.156-2.592a.958.958,0,1,0,.285.679A.93.93,0,0,0,914.8,592.866Z" transform="translate(-893.049 -590.574)" fill="#fff"/>
        <path id="Path_556" data-name="Path 556" d="M962.2,595.459a1.112,1.112,0,0,1-.82.312q-.943,0-1.127-.74h.229a.578.578,0,0,0,.351.406,1.3,1.3,0,0,0,.547.106.888.888,0,0,0,.664-.239.9.9,0,0,0,.24-.668V594.3a1.185,1.185,0,1,1,0-1.5v-.4h.229v2.248A1.1,1.1,0,0,1,962.2,595.459Zm-.156-2.592a.958.958,0,1,0,.284.679A.93.93,0,0,0,962.045,592.866Z" transform="translate(-935.909 -590.574)" fill="#fff"/>
        <path id="Path_557" data-name="Path 557" d="M993.218,584.687a.217.217,0,0,1-.128-.05.2.2,0,0,1-.056-.133c0-.1.061-.161.184-.184q.14,0,.184.184A.163.163,0,0,1,993.218,584.687ZM993.1,587.4v-2.3h.229v2.3Z" transform="translate(-965.721 -583.28)" fill="#fff"/>
        <path id="Path_558" data-name="Path 558" d="M1003.209,592.787a.8.8,0,0,0-.19-.106.583.583,0,0,0-.212-.039.306.306,0,0,0-.178.058.6.6,0,0,0-.145.145.747.747,0,0,0-.1.192.6.6,0,0,0-.036.195v1.513h-.229v-2.3h.229v.311a.928.928,0,0,1,.19-.234.375.375,0,0,1,.257-.106.879.879,0,0,1,.285.039,1.031,1.031,0,0,1,.251.139Z" transform="translate(-973.965 -590.629)" fill="#fff"/>
        <path id="Path_559" data-name="Path 559" d="M1022.041,577.217V573.1h.223v4.117Z" transform="translate(-992.038 -573.1)" fill="#fff"/>
        <path id="Path_560" data-name="Path 560" d="M1032.648,594.546a.8.8,0,0,1-.536.189.865.865,0,0,1-.8-.484l.2-.117a.777.777,0,0,0,.229.267.613.613,0,0,0,.379.106q.524,0,.524-.445a.423.423,0,0,0-.184-.339,1.187,1.187,0,0,0-.159-.075c-.069-.028-.154-.06-.254-.1a1.421,1.421,0,0,1-.4-.2.506.506,0,0,1-.179-.417.529.529,0,0,1,.179-.4.612.612,0,0,1,.452-.172.89.89,0,0,1,.653.267l-.167.145a.658.658,0,0,0-.486-.189q-.4,0-.4.351a.316.316,0,0,0,.123.256,1.1,1.1,0,0,0,.318.15,3.334,3.334,0,0,1,.313.125,1.216,1.216,0,0,1,.184.1.592.592,0,0,1,.24.5A.6.6,0,0,1,1032.648,594.546Z" transform="translate(-1000.447 -590.574)" fill="#fff"/>
        <path id="Path_561" data-name="Path 561" d="M1068.3,593.44a1.05,1.05,0,0,0,.251.74.942.942,0,0,0,.72.278,1.106,1.106,0,0,0,.424-.078.967.967,0,0,0,.429-.406l.207.095a1.112,1.112,0,0,1-.67.556,1.279,1.279,0,0,1-.391.056,1.207,1.207,0,0,1-.859-2.042,1.168,1.168,0,0,1,.859-.339,1.184,1.184,0,0,1,.848.317,1.074,1.074,0,0,1,.341.823Zm1.573-.729a1,1,0,0,0-.6-.189.907.907,0,0,0-.937.7h1.869A.775.775,0,0,0,1069.873,592.712Z" transform="translate(-1033.805 -590.52)" fill="#fff"/>
        <path id="Path_562" data-name="Path 562" d="M1095.414,595.018l-.653-.962-.653.962h-.273l.787-1.157-.77-1.141h.268l.642.951.636-.951h.268l-.765,1.135.781,1.163Z" transform="translate(-1057.175 -590.901)" fill="#fff"/>
        <path id="Path_563" data-name="Path 563" d="M1121.076,594.385a1.205,1.205,0,0,1-1.8-.122v1.508h-.229v-3.377h.229v.434a1.135,1.135,0,0,1,.949-.467,1.191,1.191,0,0,1,.848,2.025Zm-.167-1.519a.958.958,0,1,0,.285.679A.93.93,0,0,0,1120.908,592.866Z" transform="translate(-1080.052 -590.574)" fill="#fff"/>
        <path id="Path_564" data-name="Path 564" d="M1151.306,577.217V573.1h.223v4.117Z" transform="translate(-1109.318 -573.1)" fill="#fff"/>
        <path id="Path_565" data-name="Path 565" d="M1162.97,594.331a1.188,1.188,0,0,1-2.036-.84,1.141,1.141,0,0,1,.346-.84,1.127,1.127,0,0,1,.843-.35,1.2,1.2,0,0,1,.848,2.031Zm-.162-1.524a.925.925,0,0,0-.686-.284.914.914,0,0,0-.675.289.957.957,0,1,0,1.361-.006Z" transform="translate(-1118.053 -590.52)" fill="#fff"/>
        <path id="Path_566" data-name="Path 566" d="M1194.458,592.787a.8.8,0,0,0-.189-.106.585.585,0,0,0-.212-.039.306.306,0,0,0-.178.058.587.587,0,0,0-.145.145.742.742,0,0,0-.1.192.606.606,0,0,0-.036.195v1.513h-.229v-2.3h.229v.311a.93.93,0,0,1,.19-.234.376.376,0,0,1,.257-.106.878.878,0,0,1,.285.039,1.033,1.033,0,0,1,.251.139Z" transform="translate(-1147.481 -590.629)" fill="#fff"/>
        <path id="Path_567" data-name="Path 567" d="M1207.374,593.44a1.049,1.049,0,0,0,.251.74.941.941,0,0,0,.72.278,1.105,1.105,0,0,0,.424-.078.964.964,0,0,0,.43-.406l.207.095a1.112,1.112,0,0,1-.67.556,1.277,1.277,0,0,1-.391.056,1.207,1.207,0,0,1-.859-2.042,1.168,1.168,0,0,1,.859-.339,1.184,1.184,0,0,1,.848.317,1.074,1.074,0,0,1,.34.823Zm1.573-.729a1,1,0,0,0-.6-.189.908.908,0,0,0-.937.7h1.869A.774.774,0,0,0,1208.948,592.712Z" transform="translate(-1159.985 -590.52)" fill="#fff"/>
        <path id="Path_568" data-name="Path 568" d="M1255.358,594.691v-.4a1.185,1.185,0,1,1,0-1.5v-.4h.229v2.3Zm-.24-1.825a.958.958,0,1,0,.285.679A.929.929,0,0,0,1255.118,592.866Z" transform="translate(-1201.808 -590.574)" fill="#fff"/>
        <path id="Path_569" data-name="Path 569" d="M1301.468,594.546a.8.8,0,0,1-.536.189.864.864,0,0,1-.8-.484l.195-.117a.782.782,0,0,0,.229.267.613.613,0,0,0,.38.106q.524,0,.525-.445a.423.423,0,0,0-.184-.339,1.218,1.218,0,0,0-.159-.075q-.1-.042-.254-.1a1.416,1.416,0,0,1-.4-.2.506.506,0,0,1-.179-.417.529.529,0,0,1,.179-.4.611.611,0,0,1,.452-.172.89.89,0,0,1,.653.267l-.167.145a.659.659,0,0,0-.486-.189q-.4,0-.4.351a.316.316,0,0,0,.123.256,1.106,1.106,0,0,0,.318.15,3.286,3.286,0,0,1,.313.125,1.232,1.232,0,0,1,.184.1.591.591,0,0,1,.24.5A.6.6,0,0,1,1301.468,594.546Z" transform="translate(-1244.342 -590.574)" fill="#fff"/>
        <path id="Path_570" data-name="Path 570" d="M1324.953,577.222v-1.385q0-.729-.681-.729a.726.726,0,0,0-.48.167.542.542,0,0,0-.206.445v1.5h-.229V573.1h.229v2.125a.74.74,0,0,1,.686-.339.813.813,0,0,1,.91.929v1.407Z" transform="translate(-1265.416 -573.1)" fill="#fff"/>
        <path id="Path_571" data-name="Path 571" d="M1351.163,594.691v-.4a1.185,1.185,0,1,1,0-1.5v-.4h.229v2.3Zm-.24-1.825a.959.959,0,1,0,.284.679A.931.931,0,0,0,1350.923,592.866Z" transform="translate(-1288.73 -590.574)" fill="#fff"/>
        <path id="Path_572" data-name="Path 572" d="M1380.647,583.1v2.07h-.229V583.1h-.313v-.228h.313V581.86h.229v1.007h.536v.228Z" transform="translate(-1316.903 -581.048)" fill="#fff"/>
        <path id="Path_573" data-name="Path 573" d="M1396.3,583.1v2.07h-.229V583.1h-.312v-.228h.312V581.86h.229v1.007h.536v.228Z" transform="translate(-1331.1 -581.048)" fill="#fff"/>
        <path id="Path_574" data-name="Path 574" d="M1411.8,593.44a1.049,1.049,0,0,0,.251.74.941.941,0,0,0,.72.278,1.1,1.1,0,0,0,.424-.078.966.966,0,0,0,.43-.406l.207.095a1.112,1.112,0,0,1-.67.556,1.279,1.279,0,0,1-.391.056,1.207,1.207,0,0,1-.859-2.042,1.167,1.167,0,0,1,.859-.339,1.185,1.185,0,0,1,.848.317,1.075,1.075,0,0,1,.34.823Zm1.573-.729a1,1,0,0,0-.6-.189.908.908,0,0,0-.937.7h1.869A.774.774,0,0,0,1413.378,592.712Z" transform="translate(-1345.46 -590.52)" fill="#fff"/>
        <path id="Path_575" data-name="Path 575" d="M1444.685,592.787a.8.8,0,0,0-.189-.106.585.585,0,0,0-.213-.039.308.308,0,0,0-.178.058.6.6,0,0,0-.145.145.734.734,0,0,0-.1.192.6.6,0,0,0-.036.195v1.513h-.229v-2.3h.229v.311a.923.923,0,0,1,.189-.234.376.376,0,0,1,.257-.106.881.881,0,0,1,.285.039,1.026,1.026,0,0,1,.251.139Z" transform="translate(-1374.507 -590.629)" fill="#fff"/>
        <path id="Path_576" data-name="Path 576" d="M1457.6,593.44a1.05,1.05,0,0,0,.251.74.942.942,0,0,0,.72.278,1.106,1.106,0,0,0,.424-.078.965.965,0,0,0,.43-.406l.206.095a1.111,1.111,0,0,1-.669.556,1.278,1.278,0,0,1-.391.056,1.207,1.207,0,0,1-.859-2.042,1.167,1.167,0,0,1,.859-.339,1.184,1.184,0,0,1,.848.317,1.074,1.074,0,0,1,.34.823Zm1.574-.729a1,1,0,0,0-.6-.189.908.908,0,0,0-.938.7h1.869A.774.774,0,0,0,1459.176,592.712Z" transform="translate(-1387.011 -590.52)" fill="#fff"/>
        <path id="Path_577" data-name="Path 577" d="M1490.136,577.217v-.411a1.159,1.159,0,0,1-.937.45,1.185,1.185,0,1,1,0-2.37,1.189,1.189,0,0,1,.938.451V573.1h.229v4.117Zm-.257-1.825a.958.958,0,1,0,.285.679A.93.93,0,0,0,1489.879,575.392Z" transform="translate(-1414.802 -573.1)" fill="#fff"/>
        <path id="Path_578" data-name="Path 578" d="M1537.553,594.41l-.72-1.836-.731,1.836-1.032-2.4h.246l.776,1.78.742-1.853.737,1.847.77-1.775h.257Z" transform="translate(-1457.499 -590.193)" fill="#fff"/>
        <path id="Path_579" data-name="Path 579" d="M1576.465,594.331a1.189,1.189,0,0,1-2.037-.84,1.141,1.141,0,0,1,.346-.84,1.128,1.128,0,0,1,.842-.35,1.2,1.2,0,0,1,.848,2.031Zm-.162-1.524a.924.924,0,0,0-.686-.284.915.915,0,0,0-.675.289.957.957,0,1,0,1.361-.006Z" transform="translate(-1493.208 -590.52)" fill="#fff"/>
        <path id="Path_580" data-name="Path 580" d="M1607.952,592.787a.813.813,0,0,0-.19-.106.585.585,0,0,0-.212-.039.306.306,0,0,0-.178.058.6.6,0,0,0-.146.145.753.753,0,0,0-.1.192.608.608,0,0,0-.036.195v1.513h-.229v-2.3h.229v.311a.923.923,0,0,1,.189-.234.377.377,0,0,1,.257-.106.879.879,0,0,1,.285.039,1.03,1.03,0,0,1,.251.139Z" transform="translate(-1522.636 -590.629)" fill="#fff"/>
        <path id="Path_581" data-name="Path 581" d="M1626.783,577.217V573.1h.223v4.117Z" transform="translate(-1540.708 -573.1)" fill="#fff"/>
        <path id="Path_582" data-name="Path 582" d="M1637.636,577.217v-.411a1.159,1.159,0,0,1-.938.45,1.185,1.185,0,1,1,0-2.37,1.19,1.19,0,0,1,.938.451V573.1h.229v4.117Zm-.257-1.825a.958.958,0,1,0,.285.679A.93.93,0,0,0,1637.379,575.392Z" transform="translate(-1548.626 -573.1)" fill="#fff"/>
        <path id="Path_583" data-name="Path 583" d="M1668.007,600.628V600.4h2.9v.228Z" transform="translate(-1578.11 -597.869)" fill="#fff"/>
      </g>
      <g id="Group_154" data-name="Group 154" transform="translate(3.311 5.738)">
        <path id="Path_584" data-name="Path 584" d="M735.174,635.227l-.15-.017q-.312,0-.312.367v1.241h.546v.228h-.546v2.07h-.229v-2.07h-.312v-.228h.312V635.51a.47.47,0,0,1,.535-.529.642.642,0,0,1,.156.011.364.364,0,0,1,.151.039v.228Z" transform="translate(-734.171 -634.982)" fill="#fff"/>
        <path id="Path_585" data-name="Path 585" d="M749.5,646.75a.216.216,0,0,1-.128-.05.2.2,0,0,1-.056-.134q0-.15.184-.183.139,0,.184.183A.162.162,0,0,1,749.5,646.75Zm-.117,2.709v-2.3h.229v2.3Z" transform="translate(-747.912 -645.326)" fill="#fff"/>
        <path id="Path_586" data-name="Path 586" d="M758.994,639.279v-4.117h.223v4.117Z" transform="translate(-756.692 -635.145)" fill="#fff"/>
        <path id="Path_587" data-name="Path 587" d="M767.287,639.279v-4.117h.223v4.117Z" transform="translate(-764.216 -635.145)" fill="#fff"/>
        <path id="Path_588" data-name="Path 588" d="M777.066,655.5a1.049,1.049,0,0,0,.251.74.939.939,0,0,0,.719.278,1.1,1.1,0,0,0,.424-.078.966.966,0,0,0,.429-.406l.206.095a1.111,1.111,0,0,1-.669.556,1.272,1.272,0,0,1-.39.056,1.208,1.208,0,0,1-.858-2.042,1.164,1.164,0,0,1,.858-.339,1.182,1.182,0,0,1,.847.317,1.075,1.075,0,0,1,.34.823Zm1.572-.729a1,1,0,0,0-.6-.189.907.907,0,0,0-.936.7h1.867A.775.775,0,0,0,778.637,654.774Z" transform="translate(-772.886 -652.565)" fill="#fff"/>
        <path id="Path_589" data-name="Path 589" d="M809.559,639.279v-.412a1.157,1.157,0,0,1-.936.451,1.185,1.185,0,1,1,0-2.37,1.188,1.188,0,0,1,.936.451v-2.236h.228v4.117Zm-.256-1.825a.959.959,0,1,0,.284.679A.929.929,0,0,0,809.3,637.454Z" transform="translate(-800.643 -635.145)" fill="#fff"/>
        <path id="Path_590" data-name="Path 590" d="M856.916,656.473l-.719-1.836-.73,1.836-1.031-2.4h.245l.775,1.78L856.2,654l.735,1.847.769-1.775h.256Z" transform="translate(-843.285 -652.239)" fill="#fff"/>
        <path id="Path_591" data-name="Path 591" d="M898.256,646.75a.217.217,0,0,1-.128-.05.2.2,0,0,1-.056-.134q0-.15.184-.183.139,0,.184.183A.162.162,0,0,1,898.256,646.75Zm-.117,2.709v-2.3h.229v2.3Z" transform="translate(-882.875 -645.326)" fill="#fff"/>
        <path id="Path_592" data-name="Path 592" d="M908.469,645.158v2.07h-.228v-2.07h-.312v-.228h.312v-1.007h.228v1.007H909v.228Z" transform="translate(-891.818 -643.094)" fill="#fff"/>
        <path id="Path_593" data-name="Path 593" d="M927.734,639.284V637.9q0-.729-.68-.729a.726.726,0,0,0-.479.167.544.544,0,0,0-.206.445v1.5h-.229v-4.117h.229v2.125a.739.739,0,0,1,.685-.339.812.812,0,0,1,.908.929v1.407Z" transform="translate(-908.341 -635.145)" fill="#fff"/>
        <path id="Path_594" data-name="Path 594" d="M968.708,656.609a.8.8,0,0,1-.535.189.864.864,0,0,1-.8-.484l.2-.117a.775.775,0,0,0,.228.267.612.612,0,0,0,.379.106q.524,0,.524-.445a.424.424,0,0,0-.184-.339,1.2,1.2,0,0,0-.159-.075q-.1-.042-.254-.1a1.415,1.415,0,0,1-.4-.2.507.507,0,0,1-.178-.417.53.53,0,0,1,.178-.4.611.611,0,0,1,.452-.172.887.887,0,0,1,.652.267l-.167.145a.657.657,0,0,0-.485-.189q-.4,0-.4.351a.315.315,0,0,0,.123.256,1.1,1.1,0,0,0,.318.15,3.33,3.33,0,0,1,.312.125,1.274,1.274,0,0,1,.184.1.592.592,0,0,1,.24.5A.6.6,0,0,1,968.708,656.609Z" transform="translate(-945.749 -652.62)" fill="#fff"/>
        <path id="Path_595" data-name="Path 595" d="M990.261,656.393a1.191,1.191,0,0,1-1.688-1.68,1.125,1.125,0,0,1,.841-.351,1.2,1.2,0,0,1,.847,2.031Zm-.161-1.524a.923.923,0,0,0-.686-.284.913.913,0,0,0-.674.289.956.956,0,1,0,1.36-.006Z" transform="translate(-964.671 -652.565)" fill="#fff"/>
        <path id="Path_596" data-name="Path 596" d="M1021.816,656.879a.834.834,0,0,1-.641.245.818.818,0,0,1-.63-.239.942.942,0,0,1-.223-.668v-1.435h.228v1.435a.783.783,0,0,0,.145.506.594.594,0,0,0,.479.178q.641,0,.641-.684v-1.435h.223v1.435A.934.934,0,0,1,1021.816,656.879Z" transform="translate(-993.79 -652.946)" fill="#fff"/>
        <path id="Path_597" data-name="Path 597" d="M1048.557,656.808v-1.374q0-.729-.658-.729a.621.621,0,0,0-.49.189.739.739,0,0,0-.173.517v1.4h-.228v-2.3h.228v.278a.672.672,0,0,1,.663-.306.856.856,0,0,1,.658.245.965.965,0,0,1,.228.684v1.4Z" transform="translate(-1018.002 -652.674)" fill="#fff"/>
        <path id="Path_598" data-name="Path 598" d="M1075.456,639.279v-.412a1.157,1.157,0,0,1-.936.451,1.185,1.185,0,1,1,0-2.37,1.188,1.188,0,0,1,.936.451v-2.236h.228v4.117Zm-.256-1.825a.959.959,0,1,0,.284.679A.929.929,0,0,0,1075.2,637.454Z" transform="translate(-1041.886 -635.145)" fill="#fff"/>
        <path id="Path_599" data-name="Path 599" d="M1105.913,658.63a.217.217,0,0,1-.128-.05.2.2,0,0,1-.056-.134q0-.15.184-.184.139,0,.184.184A.162.162,0,0,1,1105.913,658.63Zm0,1.641a.218.218,0,0,1-.128-.05.2.2,0,0,1-.056-.134q0-.15.184-.184.139,0,.184.184A.162.162,0,0,1,1105.913,660.271Z" transform="translate(-1071.278 -656.104)" fill="#fff"/>
        <path id="Path_600" data-name="Path 600" d="M1133.2,656.754v-.4a1.185,1.185,0,1,1,0-1.5v-.4h.229v2.3Zm-.24-1.825a.959.959,0,1,0,.284.679A.929.929,0,0,0,1132.959,654.929Z" transform="translate(-1094.289 -652.62)" fill="#fff"/>
        <path id="Path_601" data-name="Path 601" d="M1182.039,656.448a1.2,1.2,0,0,1-1.794-.122v1.508h-.229v-3.377h.229v.434a1.133,1.133,0,0,1,.947-.467,1.192,1.192,0,0,1,.847,2.025Zm-.167-1.519a.959.959,0,1,0,.284.679A.929.929,0,0,0,1181.872,654.929Z" transform="translate(-1138.677 -652.62)" fill="#fff"/>
        <path id="Path_602" data-name="Path 602" d="M1211.813,656.754v-.4a1.185,1.185,0,1,1,0-1.5v-.4h.229v2.3Zm-.239-1.825a.96.96,0,1,0,.284.679A.929.929,0,0,0,1211.574,654.929Z" transform="translate(-1165.615 -652.62)" fill="#fff"/>
        <path id="Path_603" data-name="Path 603" d="M1241.938,656.609a.8.8,0,0,1-.535.189.863.863,0,0,1-.8-.484l.195-.117a.775.775,0,0,0,.229.267.611.611,0,0,0,.379.106q.524,0,.524-.445a.424.424,0,0,0-.184-.339,1.223,1.223,0,0,0-.159-.075q-.1-.042-.254-.1a1.417,1.417,0,0,1-.4-.2.506.506,0,0,1-.178-.417.529.529,0,0,1,.178-.4.611.611,0,0,1,.451-.172.888.888,0,0,1,.652.267l-.167.145a.658.658,0,0,0-.485-.189q-.4,0-.4.351a.316.316,0,0,0,.123.256,1.1,1.1,0,0,0,.318.15,3.319,3.319,0,0,1,.312.125,1.242,1.242,0,0,1,.184.1.592.592,0,0,1,.24.5A.6.6,0,0,1,1241.938,656.609Z" transform="translate(-1193.645 -652.62)" fill="#fff"/>
        <path id="Path_604" data-name="Path 604" d="M1261.755,645.158v2.07h-.228v-2.07h-.312v-.228h.312v-1.007h.228v1.007h.535v.228Z" transform="translate(-1212.347 -643.094)" fill="#fff"/>
        <path id="Path_605" data-name="Path 605" d="M1293.31,645.158v2.07h-.228v-2.07h-.312v-.228h.313v-1.007h.228v1.007h.535v.228Z" transform="translate(-1240.975 -643.094)" fill="#fff"/>
        <path id="Path_606" data-name="Path 606" d="M1307.787,656.393a1.191,1.191,0,0,1-1.688-1.68,1.124,1.124,0,0,1,.841-.351,1.2,1.2,0,0,1,.847,2.031Zm-.162-1.524a.923.923,0,0,0-.685-.284.914.914,0,0,0-.674.289.956.956,0,1,0,1.36-.006Z" transform="translate(-1252.756 -652.565)" fill="#fff"/>
        <path id="Path_607" data-name="Path 607" d="M1355.431,638.973a1.2,1.2,0,0,1-1.789-.117v.423h-.229v-4.117h.229v2.247a1.19,1.19,0,1,1,1.789,1.563Zm-.167-1.519a.959.959,0,1,0,.284.679A.929.929,0,0,0,1355.263,637.454Z" transform="translate(-1295.996 -635.145)" fill="#fff"/>
        <path id="Path_608" data-name="Path 608" d="M1384.05,655.5a1.051,1.051,0,0,0,.251.74.939.939,0,0,0,.719.278,1.1,1.1,0,0,0,.423-.078.963.963,0,0,0,.429-.406l.206.095a1.109,1.109,0,0,1-.668.556,1.273,1.273,0,0,1-.39.056,1.208,1.208,0,0,1-.858-2.042,1.164,1.164,0,0,1,.858-.339,1.181,1.181,0,0,1,.847.317,1.075,1.075,0,0,1,.34.823Zm1.572-.729a1,1,0,0,0-.6-.189.907.907,0,0,0-.937.7h1.867A.774.774,0,0,0,1385.622,654.774Z" transform="translate(-1323.591 -652.565)" fill="#fff"/>
        <path id="Path_609" data-name="Path 609" d="M1432.922,656.879a.833.833,0,0,1-.641.245.819.819,0,0,1-.63-.239.941.941,0,0,1-.223-.668v-1.435h.228v1.435a.783.783,0,0,0,.145.506.594.594,0,0,0,.479.178q.641,0,.641-.684v-1.435h.223v1.435A.933.933,0,0,1,1432.922,656.879Z" transform="translate(-1366.778 -652.946)" fill="#fff"/>
        <path id="Path_610" data-name="Path 610" d="M1459.663,656.808v-1.374q0-.729-.657-.729a.622.622,0,0,0-.491.189.738.738,0,0,0-.173.517v1.4h-.229v-2.3h.229v.278a.672.672,0,0,1,.663-.306.856.856,0,0,1,.657.245.964.964,0,0,1,.229.684v1.4Z" transform="translate(-1390.99 -652.674)" fill="#fff"/>
        <path id="Path_611" data-name="Path 611" d="M1485.872,656.743a1.191,1.191,0,1,1,0-2.381,1.126,1.126,0,0,1,.7.2v.273l-.145-.095-.156-.083a1.246,1.246,0,0,0-.4-.072.968.968,0,1,0,0,1.936,1.025,1.025,0,0,0,.7-.267v.284A1.247,1.247,0,0,1,1485.872,656.743Z" transform="translate(-1415.092 -652.565)" fill="#fff"/>
        <path id="Path_612" data-name="Path 612" d="M1509.192,656.393a1.191,1.191,0,0,1-1.689-1.68,1.126,1.126,0,0,1,.842-.351,1.2,1.2,0,0,1,.847,2.031Zm-.162-1.524a.973.973,0,1,0,.279.684A.922.922,0,0,0,1509.03,654.868Z" transform="translate(-1435.486 -652.565)" fill="#fff"/>
        <path id="Path_613" data-name="Path 613" d="M1535.052,657.18l-1.087-2.4h.245l.836,1.83.842-1.83h.256Z" transform="translate(-1459.808 -652.946)" fill="#fff"/>
        <path id="Path_614" data-name="Path 614" d="M1561.355,655.5a1.051,1.051,0,0,0,.251.74.94.94,0,0,0,.719.278,1.1,1.1,0,0,0,.423-.078.964.964,0,0,0,.429-.406l.206.095a1.11,1.11,0,0,1-.669.556,1.271,1.271,0,0,1-.39.056,1.208,1.208,0,0,1-.858-2.042,1.165,1.165,0,0,1,.858-.339,1.183,1.183,0,0,1,.847.317,1.075,1.075,0,0,1,.34.823Zm1.572-.729a1,1,0,0,0-.6-.189.906.906,0,0,0-.936.7h1.867A.772.772,0,0,0,1562.926,654.774Z" transform="translate(-1484.456 -652.565)" fill="#fff"/>
        <path id="Path_615" data-name="Path 615" d="M1594.193,654.849a.808.808,0,0,0-.19-.106.581.581,0,0,0-.212-.039.305.305,0,0,0-.178.058.6.6,0,0,0-.145.145.755.755,0,0,0-.1.192.608.608,0,0,0-.036.195v1.513h-.229v-2.3h.229v.312a.933.933,0,0,1,.189-.234.376.376,0,0,1,.256-.106.876.876,0,0,1,.284.039,1.027,1.027,0,0,1,.251.139Z" transform="translate(-1513.465 -652.674)" fill="#fff"/>
        <path id="Path_616" data-name="Path 616" d="M1607.093,655.5a1.049,1.049,0,0,0,.251.74.939.939,0,0,0,.719.278,1.1,1.1,0,0,0,.423-.078.963.963,0,0,0,.429-.406l.206.095a1.11,1.11,0,0,1-.669.556,1.27,1.27,0,0,1-.39.056,1.208,1.208,0,0,1-.858-2.042,1.165,1.165,0,0,1,.858-.339,1.182,1.182,0,0,1,.847.317,1.075,1.075,0,0,1,.34.823Zm1.572-.729a1,1,0,0,0-.6-.189.907.907,0,0,0-.937.7h1.867A.776.776,0,0,0,1608.664,654.774Z" transform="translate(-1525.953 -652.565)" fill="#fff"/>
        <path id="Path_617" data-name="Path 617" d="M1639.586,639.279v-.412a1.156,1.156,0,0,1-.936.451,1.185,1.185,0,1,1,0-2.37,1.187,1.187,0,0,1,.936.451v-2.236h.228v4.117Zm-.256-1.825a.959.959,0,1,0,.284.679A.929.929,0,0,0,1639.33,637.454Z" transform="translate(-1553.709 -635.145)" fill="#fff"/>
      </g>
    </g>
  </g>
</svg>
